<?xml version="1.0" encoding="utf-8"?>
<!-- Generator: Adobe Illustrator 23.0.0, SVG Export Plug-In . SVG Version: 6.00 Build 0)  -->
<svg version="1.1" id="Layer_1" xmlns="http://www.w3.org/2000/svg" xmlns:xlink="http://www.w3.org/1999/xlink" x="0px" y="0px"
	 viewBox="0 0 256 256" style="enable-background:new 0 0 256 256;" xml:space="preserve">
<style type="text/css">
	.st0{fill:#504199;}
	.st1{fill:#6157A4;}
	.st2{fill:#7966AC;stroke:#FFFFFF;stroke-width:0.25;stroke-miterlimit:10;}
	.st3{fill:#8072B3;stroke:#FFFFFF;stroke-width:0.25;stroke-miterlimit:10;}
	.st4{opacity:0.4;}
	.st5{enable-background:new    ;}
	.st6{fill:#231F20;}
	.st7{fill:#FFFFFF;}
	.st8{fill:#D1D1D3;}
</style>
<title>Pure GDPR logo</title>
<g>
	<g>
		<path class="st0" d="M127.9,0.1c11.6-1.7,76,12.1,125.2,30.5c2.5,3.9,5.1,69.5,0,97.7c-1.5,16.9-20.9,56.3-32.6,66.5
			c-18.6,26.7-68,55.2-92.6,61.2C127.6,241.2,127.9,0.1,127.9,0.1z"/>
		<path class="st1" d="M128.1,0.1c-11.6-1.7-76,12.1-125.2,30.5c-2.5,3.9-5.1,69.5,0,97.7c1.5,16.9,20.9,56.3,32.6,66.5
			c18.6,26.7,68,55.2,92.6,61.2C128.4,241.2,128.1,0.1,128.1,0.1z"/>
		<path class="st2" d="M128.3,27.3c8.7-1.3,57.2,9.1,94.1,23c1.9,2.9,3.9,52.3,0,73.4c-1.1,12.7-15.7,42.3-24.5,50
			c-14,20.1-51.2,41.5-69.6,46.1"/>
		<path class="st3" d="M128.5,27.3c-8.7-1.3-57.2,9.1-94.2,23c-1.8,2.9-3.9,52.3,0,73.4c1.2,12.7,15.8,42.3,24.5,50
			c14,20.1,51.2,41.5,69.6,46.1"/>
		<g class="st4">
			<g class="st5">
				<path class="st6" d="M74.4,89.6v2.5c-1.5,0.3-2.3,1.4-2.3,3.2v21c0,0.8,0.1,1.4,0.4,1.9c0.2,0.4,0.7,0.7,1.5,0.9v2.5
					c-0.6,0-1.1,0-1.5-0.1s-1.1-0.2-1.9-0.5c-1.8-0.5-3.5-1.4-5-2.5c-1.5-1.1-2.7-2.4-3.7-4c-1.5-2.4-2.2-5.3-2.2-8.6
					c0-3.2,0.7-6,2-8.5c1.3-2.5,3.3-4.4,5.8-5.8c1.4-0.8,3-1.4,4.6-1.8C72.7,89.7,73.5,89.6,74.4,89.6z M88.5,117.2
					c-0.7,0.6-1.6,1.2-2.8,1.8c-1.2,0.6-2.3,1.1-3.3,1.5c-1,0.3-2,0.6-3.2,0.8c-1.2,0.2-2.2,0.3-3,0.3v-2.5c0.5-0.1,0.9-0.2,1.1-0.4
					c0.3-0.1,0.5-0.4,0.6-0.6c0.3-0.5,0.4-1.1,0.4-1.8v-6.6c0-0.6-0.1-1-0.4-1.3c-0.1-0.1-0.2-0.2-0.4-0.3s-0.5-0.1-1.2-0.3
					c-0.8-0.2-1.3-0.6-1.3-1.3c0-0.4,0.2-0.7,0.6-0.9c0.4-0.2,1-0.3,1.8-0.3h0.9H88c0.8,0,1.4,0.1,1.7,0.3c0.3,0.2,0.5,0.5,0.5,1
					c0,0.3-0.1,0.5-0.2,0.7c-0.1,0.2-0.4,0.4-0.7,0.6c-0.4,0.2-0.6,0.4-0.7,0.6c-0.1,0.2-0.1,0.5-0.1,1V117.2z M76.6,92v-2.4
					c2.9,0.2,5.2,0.7,7.1,1.4c0.5,0.2,1,0.3,1.3,0.3c0.3,0,0.5-0.1,0.6-0.2s0.5-0.4,0.9-1c0.3-0.4,0.7-0.6,1.2-0.6
					c0.5,0,0.8,0.1,1,0.3c0.2,0.2,0.3,0.6,0.3,1.2v8.8c0,1.1-0.5,1.7-1.5,1.7c-0.5,0-0.9-0.1-1.1-0.3c-0.2-0.2-0.5-0.7-0.7-1.3
					c-0.3-0.8-0.7-1.8-1.4-2.9c-0.7-1.1-1.3-2-2-2.7c-0.7-0.8-1.5-1.3-2.4-1.7C79,92.3,77.9,92.1,76.6,92z"/>
				<path class="st6" d="M108.6,90.2V121H96.8h-0.7c-0.6,0-1.1-0.1-1.5-0.3c-0.3-0.2-0.5-0.5-0.5-0.9c0-0.6,0.4-1,1.1-1.2
					c0.6-0.2,0.9-0.3,1-0.3c0.1,0,0.2-0.1,0.3-0.3c0.2-0.2,0.3-0.6,0.3-1.2V94.3c0-0.5-0.1-0.9-0.3-1.2c-0.1-0.1-0.2-0.2-0.3-0.3
					c-0.1,0-0.4-0.1-1-0.3c-0.7-0.2-1.1-0.6-1.1-1.2c0-0.4,0.2-0.7,0.5-0.9c0.3-0.2,0.8-0.3,1.5-0.3h0.7H108.6z M113.9,114.5V96.7
					c0-1.1-0.2-2-0.6-2.6c-0.2-0.4-0.5-0.7-0.8-0.9c-0.3-0.2-0.9-0.4-1.6-0.5v-2.5c0.9,0,1.7,0,2.4,0.1c2.2,0.2,4.4,1,6.5,2.4
					c2.1,1.4,3.6,3.2,4.6,5.3c1,2.2,1.6,4.7,1.6,7.4c0,3.1-0.7,5.8-2,8.2c-1.3,2.4-3.2,4.3-5.7,5.6c-1.2,0.7-2.3,1.1-3.3,1.4
					s-2.4,0.4-4.1,0.4v-2.4c0.7-0.2,1.3-0.3,1.5-0.5c0.3-0.1,0.5-0.3,0.8-0.6c0.3-0.3,0.4-0.7,0.5-1.1
					C113.9,115.9,113.9,115.3,113.9,114.5z"/>
			</g>
		</g>
		<g class="st5">
			<path class="st7" d="M73.4,89.6v2.5c-1.5,0.3-2.3,1.4-2.3,3.2v21c0,0.8,0.1,1.4,0.4,1.9c0.2,0.4,0.7,0.7,1.5,0.9v2.5
				c-0.6,0-1.1,0-1.5-0.1s-1.1-0.2-1.9-0.5c-1.8-0.5-3.5-1.4-5-2.5c-1.5-1.1-2.7-2.4-3.7-4c-1.5-2.4-2.2-5.3-2.2-8.6
				c0-3.2,0.7-6,2-8.5c1.3-2.5,3.3-4.4,5.8-5.8c1.4-0.8,3-1.4,4.6-1.8C71.7,89.7,72.5,89.6,73.4,89.6z M87.5,117.2
				c-0.7,0.6-1.6,1.2-2.8,1.8c-1.2,0.6-2.3,1.1-3.3,1.5c-1,0.3-2,0.6-3.2,0.8c-1.2,0.2-2.2,0.3-3,0.3v-2.5c0.5-0.1,0.9-0.2,1.1-0.4
				c0.3-0.1,0.5-0.4,0.6-0.6c0.3-0.5,0.4-1.1,0.4-1.8v-6.6c0-0.6-0.1-1-0.4-1.3c-0.1-0.1-0.2-0.2-0.4-0.3s-0.5-0.1-1.2-0.3
				c-0.8-0.2-1.3-0.6-1.3-1.3c0-0.4,0.2-0.7,0.6-0.9c0.4-0.2,1-0.3,1.8-0.3h0.9H87c0.8,0,1.4,0.1,1.7,0.3c0.3,0.2,0.5,0.5,0.5,1
				c0,0.3-0.1,0.5-0.2,0.7c-0.1,0.2-0.4,0.4-0.7,0.6c-0.4,0.2-0.6,0.4-0.7,0.6c-0.1,0.2-0.1,0.5-0.1,1V117.2z M75.6,92v-2.4
				c2.9,0.2,5.2,0.7,7.1,1.4c0.5,0.2,1,0.3,1.3,0.3c0.3,0,0.5-0.1,0.6-0.2s0.5-0.4,0.9-1c0.3-0.4,0.7-0.6,1.2-0.6
				c0.5,0,0.8,0.1,1,0.3c0.2,0.2,0.3,0.6,0.3,1.2v8.8c0,1.1-0.5,1.7-1.5,1.7c-0.5,0-0.9-0.1-1.1-0.3c-0.2-0.2-0.5-0.7-0.7-1.3
				c-0.3-0.8-0.7-1.8-1.4-2.9c-0.7-1.1-1.3-2-2-2.7c-0.7-0.8-1.5-1.3-2.4-1.7C78,92.3,76.9,92.1,75.6,92z"/>
			<path class="st7" d="M107.6,90.2V121H95.8h-0.7c-0.6,0-1.1-0.1-1.5-0.3c-0.3-0.2-0.5-0.5-0.5-0.9c0-0.6,0.4-1,1.1-1.2
				c0.6-0.2,0.9-0.3,1-0.3c0.1,0,0.2-0.1,0.3-0.3c0.2-0.2,0.3-0.6,0.3-1.2V94.3c0-0.5-0.1-0.9-0.3-1.2c-0.1-0.1-0.2-0.2-0.3-0.3
				c-0.1,0-0.4-0.1-1-0.3c-0.7-0.2-1.1-0.6-1.1-1.2c0-0.4,0.2-0.7,0.5-0.9c0.3-0.2,0.8-0.3,1.5-0.3h0.7H107.6z M112.9,114.5V96.7
				c0-1.1-0.2-2-0.6-2.6c-0.2-0.4-0.5-0.7-0.8-0.9c-0.3-0.2-0.9-0.4-1.6-0.5v-2.5c0.9,0,1.7,0,2.4,0.1c2.2,0.2,4.4,1,6.5,2.4
				c2.1,1.4,3.6,3.2,4.6,5.3c1,2.2,1.6,4.7,1.6,7.4c0,3.1-0.7,5.8-2,8.2c-1.3,2.4-3.2,4.3-5.7,5.6c-1.2,0.7-2.3,1.1-3.3,1.4
				s-2.4,0.4-4.1,0.4v-2.4c0.7-0.2,1.3-0.3,1.5-0.5c0.3-0.1,0.5-0.3,0.8-0.6c0.3-0.3,0.4-0.7,0.5-1.1
				C112.9,115.9,112.9,115.3,112.9,114.5z"/>
		</g>
		<g class="st4">
			<g class="st5">
				<path class="st6" d="M143.7,90.2v26.5c0,0.6,0.1,1,0.4,1.3c0.1,0.2,0.3,0.2,0.4,0.3c0.1,0,0.5,0.1,1.2,0.3
					c0.8,0.2,1.3,0.6,1.3,1.2c0,0.4-0.2,0.7-0.7,0.9c-0.3,0.2-0.9,0.3-1.7,0.3h-0.9H132h-0.7c-0.6,0-1.1-0.1-1.5-0.3
					c-0.3-0.2-0.5-0.5-0.5-0.9c0-0.6,0.4-1,1.1-1.2c0.6-0.2,0.9-0.3,1-0.3c0.1,0,0.2-0.1,0.3-0.3c0.2-0.2,0.3-0.6,0.3-1.2V94.3
					c0-0.5-0.1-0.9-0.3-1.1c-0.1-0.1-0.2-0.2-0.3-0.3c-0.1,0-0.4-0.1-1-0.3c-0.7-0.2-1.1-0.6-1.1-1.2c0-0.4,0.2-0.7,0.5-0.9
					c0.3-0.2,0.8-0.3,1.5-0.3h0.7H143.7z M146,109.2v-2.4c0.8-0.1,1.3-0.3,1.6-0.5c0.3-0.2,0.6-0.4,0.8-0.8c0.4-0.6,0.6-1.4,0.6-2.4
					V96c0-0.7-0.1-1.2-0.2-1.6c-0.1-0.3-0.4-0.7-0.7-0.9c-0.5-0.4-1.2-0.7-2.1-0.8v-2.4c3.6,0,6.3,0.3,8,0.9c2,0.7,3.6,1.7,4.7,3.1
					c1.2,1.4,1.8,3.2,1.8,5.3c0,2.3-0.6,4.2-1.8,5.7c-1.2,1.5-2.9,2.5-5,3.2C151.9,108.9,149.3,109.2,146,109.2z"/>
				<path class="st6" d="M178.1,90.2v26.5c0,0.6,0.1,1,0.4,1.3c0.1,0.2,0.3,0.2,0.4,0.3s0.5,0.1,1.2,0.3c0.8,0.2,1.3,0.6,1.3,1.2
					c0,0.4-0.2,0.7-0.7,0.9c-0.3,0.2-0.9,0.3-1.7,0.3h-0.9h-11.8h-0.7c-0.6,0-1.1-0.1-1.5-0.3c-0.3-0.2-0.5-0.5-0.5-0.9
					c0-0.6,0.4-1,1.1-1.2c0.6-0.2,0.9-0.3,1-0.3c0.1,0,0.2-0.1,0.3-0.3c0.2-0.2,0.3-0.6,0.3-1.2V94.3c0-0.5-0.1-0.9-0.3-1.1
					c-0.1-0.1-0.2-0.2-0.3-0.3c-0.1,0-0.4-0.1-1-0.3c-0.7-0.2-1.1-0.6-1.1-1.2c0-0.4,0.2-0.7,0.5-0.9c0.3-0.2,0.8-0.3,1.5-0.3h0.7
					H178.1z M186.2,105.9c1.6,0.2,2.9,0.4,3.7,0.7c0.9,0.3,1.7,0.6,2.4,1c0.7,0.5,1.3,1,1.7,1.7c0.4,0.6,0.6,1.3,0.6,2.1v4.7
					c0,0.5,0.2,0.7,0.6,0.7c0.1,0,0.3,0,0.4-0.1c0.1-0.1,0.2-0.2,0.4-0.4c0.4-0.5,0.9-0.8,1.3-0.8c0.3,0,0.6,0.1,0.9,0.4
					c0.3,0.3,0.4,0.5,0.4,0.8c0,0.5-0.3,1-0.8,1.7c-0.5,0.7-1.2,1.3-1.9,1.8c-0.7,0.5-1.5,0.9-2.3,1.1c-0.8,0.2-1.8,0.3-3,0.3
					c-2.3,0-4.1-0.6-5.4-1.7c-1.3-1.1-2-2.7-2-4.7v-3.8c0-0.8,0-1.3,0-1.5c-0.1-0.6-0.3-1.1-0.7-1.6c-0.5-0.5-1.2-0.8-2.2-0.9V105
					c1-0.1,1.6-0.3,2-0.6c0.4-0.3,0.6-0.6,0.7-0.9c0.1-0.3,0.2-0.9,0.2-1.5v-6c0-0.9-0.2-1.7-0.6-2.1c-0.4-0.5-1.2-0.8-2.3-1.1v-2.5
					h0.7c2,0,3.6,0.1,5,0.2c2,0.2,3.9,0.7,5.5,1.7c2.3,1.4,3.5,3.4,3.5,6c0,2.1-0.8,3.9-2.3,5.2c-0.7,0.6-1.4,1-2.3,1.4
					C189.3,105,188,105.5,186.2,105.9z"/>
			</g>
		</g>
		<g class="st5">
			<path class="st8" d="M144.7,90.2v26.5c0,0.6,0.1,1,0.4,1.3c0.1,0.2,0.3,0.2,0.4,0.3c0.1,0,0.5,0.1,1.2,0.3
				c0.8,0.2,1.3,0.6,1.3,1.2c0,0.4-0.2,0.7-0.7,0.9c-0.3,0.2-0.9,0.3-1.7,0.3h-0.9H133h-0.7c-0.6,0-1.1-0.1-1.5-0.3
				c-0.3-0.2-0.5-0.5-0.5-0.9c0-0.6,0.4-1,1.1-1.2c0.6-0.2,0.9-0.3,1-0.3c0.1,0,0.2-0.1,0.3-0.3c0.2-0.2,0.3-0.6,0.3-1.2V94.3
				c0-0.5-0.1-0.9-0.3-1.1c-0.1-0.1-0.2-0.2-0.3-0.3c-0.1,0-0.4-0.1-1-0.3c-0.7-0.2-1.1-0.6-1.1-1.2c0-0.4,0.2-0.7,0.5-0.9
				c0.3-0.2,0.8-0.3,1.5-0.3h0.7H144.7z M147,109.2v-2.4c0.8-0.1,1.3-0.3,1.6-0.5c0.3-0.2,0.6-0.4,0.8-0.8c0.4-0.6,0.6-1.4,0.6-2.4
				V96c0-0.7-0.1-1.2-0.2-1.6c-0.1-0.3-0.4-0.7-0.7-0.9c-0.5-0.4-1.2-0.7-2.1-0.8v-2.4c3.6,0,6.3,0.3,8,0.9c2,0.7,3.6,1.7,4.7,3.1
				c1.2,1.4,1.8,3.2,1.8,5.3c0,2.3-0.6,4.2-1.8,5.7c-1.2,1.5-2.9,2.5-5,3.2C152.9,108.9,150.3,109.2,147,109.2z"/>
			<path class="st8" d="M179.1,90.2v26.5c0,0.6,0.1,1,0.4,1.3c0.1,0.2,0.3,0.2,0.4,0.3s0.5,0.1,1.2,0.3c0.8,0.2,1.3,0.6,1.3,1.2
				c0,0.4-0.2,0.7-0.7,0.9c-0.3,0.2-0.9,0.3-1.7,0.3h-0.9h-11.8h-0.7c-0.6,0-1.1-0.1-1.5-0.3c-0.3-0.2-0.5-0.5-0.5-0.9
				c0-0.6,0.4-1,1.1-1.2c0.6-0.2,0.9-0.3,1-0.3c0.1,0,0.2-0.1,0.3-0.3c0.2-0.2,0.3-0.6,0.3-1.2V94.3c0-0.5-0.1-0.9-0.3-1.1
				c-0.1-0.1-0.2-0.2-0.3-0.3c-0.1,0-0.4-0.1-1-0.3c-0.7-0.2-1.1-0.6-1.1-1.2c0-0.4,0.2-0.7,0.5-0.9c0.3-0.2,0.8-0.3,1.5-0.3h0.7
				H179.1z M187.2,105.9c1.6,0.2,2.9,0.4,3.7,0.7c0.9,0.3,1.7,0.6,2.4,1c0.7,0.5,1.3,1,1.7,1.7c0.4,0.6,0.6,1.3,0.6,2.1v4.7
				c0,0.5,0.2,0.7,0.6,0.7c0.1,0,0.3,0,0.4-0.1c0.1-0.1,0.2-0.2,0.4-0.4c0.4-0.5,0.9-0.8,1.3-0.8c0.3,0,0.6,0.1,0.9,0.4
				c0.3,0.3,0.4,0.5,0.4,0.8c0,0.5-0.3,1-0.8,1.7c-0.5,0.7-1.2,1.3-1.9,1.8c-0.7,0.5-1.5,0.9-2.3,1.1c-0.8,0.2-1.8,0.3-3,0.3
				c-2.3,0-4.1-0.6-5.4-1.7c-1.3-1.1-2-2.7-2-4.7v-3.8c0-0.8,0-1.3,0-1.5c-0.1-0.6-0.3-1.1-0.7-1.6c-0.5-0.5-1.2-0.8-2.2-0.9V105
				c1-0.1,1.6-0.3,2-0.6c0.4-0.3,0.6-0.6,0.7-0.9c0.1-0.3,0.2-0.9,0.2-1.5v-6c0-0.9-0.2-1.7-0.6-2.1c-0.4-0.5-1.2-0.8-2.3-1.1v-2.5
				h0.7c2,0,3.6,0.1,5,0.2c2,0.2,3.9,0.7,5.5,1.7c2.3,1.4,3.5,3.4,3.5,6c0,2.1-0.8,3.9-2.3,5.2c-0.7,0.6-1.4,1-2.3,1.4
				C190.3,105,189,105.5,187.2,105.9z"/>
		</g>
		<g class="st5">
			<path class="st7" d="M93.7,67.5l1.2-0.2c0.1,0,0.2-0.1,0.3-0.2c0.1-0.1,0.1-0.2,0.1-0.3v-8.7c0-0.1,0-0.2-0.1-0.3
				c-0.1-0.1-0.2-0.1-0.3-0.2l-1.2-0.2V57h4.6c0.6,0,1.2,0.1,1.8,0.2c0.6,0.1,1,0.3,1.5,0.5c0.4,0.2,0.7,0.5,1,0.9
				c0.2,0.4,0.4,0.8,0.4,1.3c0,0.5-0.1,1-0.3,1.5s-0.5,0.8-0.9,1.1c-0.4,0.3-0.8,0.5-1.3,0.7c-0.5,0.2-1.1,0.2-1.7,0.2
				c-0.1,0-0.3,0-0.4,0c-0.2,0-0.3-0.1-0.5-0.1c-0.2,0-0.3-0.1-0.5-0.2c-0.2-0.1-0.3-0.1-0.4-0.2v4c0,0.1,0,0.2,0.1,0.3
				c0.1,0.1,0.2,0.1,0.3,0.2l1.3,0.2v0.4h-5V67.5z M97,62.6c0.1,0,0.2,0,0.3,0.1c0.1,0,0.3,0,0.4,0c0.1,0,0.3,0,0.4,0
				c0.1,0,0.3,0,0.4,0c0.4,0,0.7,0,1-0.1c0.3-0.1,0.5-0.2,0.7-0.4s0.3-0.3,0.5-0.5c0.1-0.2,0.2-0.4,0.3-0.5s0.1-0.4,0.1-0.5
				c0-0.2,0-0.3,0-0.4c0-0.4,0-0.7-0.1-1c-0.1-0.3-0.3-0.6-0.5-0.8c-0.2-0.2-0.6-0.4-1-0.6s-0.9-0.2-1.5-0.2H97V62.6z"/>
			<path class="st7" d="M104.9,61.7c0-0.1,0-0.3-0.1-0.3s-0.2-0.2-0.4-0.2l-0.8-0.3v-0.2l3-0.5v4.7c0,0.4,0,0.7,0.1,0.9
				c0,0.3,0.1,0.5,0.3,0.7c0.1,0.2,0.3,0.4,0.6,0.5c0.3,0.1,0.6,0.2,1,0.2c0.2,0,0.4,0,0.6,0c0.2,0,0.4-0.1,0.6-0.1
				c0.2-0.1,0.4-0.1,0.6-0.2s0.3-0.2,0.5-0.4v-4.6c0-0.1,0-0.2-0.1-0.3c-0.1-0.1-0.2-0.1-0.4-0.2l-0.9-0.3v-0.2l3-0.6v6.3
				c0,0.1,0,0.3,0.1,0.3c0.1,0.1,0.2,0.2,0.4,0.2l0.8,0.2v0.2l-2.7,0.6h-0.2v-1.3c-0.2,0.3-0.5,0.5-0.7,0.7
				c-0.2,0.2-0.5,0.3-0.7,0.4s-0.5,0.2-0.7,0.2c-0.2,0-0.5,0-0.8,0c-0.4,0-0.8-0.1-1.1-0.2s-0.6-0.3-0.9-0.5
				c-0.3-0.2-0.4-0.5-0.6-0.8c-0.1-0.3-0.2-0.8-0.2-1.2V61.7z"/>
		</g>
		<g class="st5">
			<path class="st7" d="M114.1,67.5l1-0.2c0.1,0,0.2-0.1,0.3-0.2c0.1-0.1,0.1-0.2,0.1-0.3v-5.2c0-0.1,0-0.3-0.1-0.4
				c-0.1-0.1-0.2-0.2-0.4-0.2l-0.8-0.3v-0.2l2.9-0.5v1.7c0.1-0.2,0.3-0.4,0.5-0.6c0.2-0.2,0.4-0.4,0.6-0.6c0.2-0.2,0.5-0.3,0.7-0.4
				c0.3-0.1,0.6-0.2,0.9-0.2c0.2,0,0.3,0,0.4,0c0.1,0,0.2,0,0.3,0.1c0.1,0,0.2,0,0.3,0.1c0.1,0,0.2,0.1,0.3,0.1v1.8h-0.5l-0.3-0.7
				c0-0.1-0.1-0.1-0.2-0.1c-0.1,0-0.2-0.1-0.3-0.1c-0.1,0-0.2,0-0.3-0.1c-0.1,0-0.2,0-0.3,0c-0.2,0-0.4,0-0.6,0.1
				c-0.2,0-0.4,0.1-0.6,0.2s-0.3,0.2-0.5,0.3s-0.3,0.3-0.5,0.5v4.6c0,0.1,0,0.2,0.1,0.3c0.1,0.1,0.2,0.1,0.3,0.1l1.2,0.2v0.4h-4.6
				V67.5z"/>
		</g>
		<g class="st5">
			<path class="st7" d="M129,66.2v0.6c-0.2,0.2-0.4,0.3-0.6,0.5c-0.2,0.2-0.5,0.3-0.8,0.4c-0.3,0.1-0.6,0.2-1,0.3
				c-0.3,0.1-0.7,0.1-1.1,0.1c-0.6,0-1.1-0.1-1.6-0.3c-0.5-0.2-0.9-0.4-1.3-0.8s-0.6-0.8-0.8-1.2c-0.2-0.5-0.3-1.1-0.3-1.7
				c0-0.5,0.1-1,0.3-1.5c0.2-0.5,0.5-0.9,0.8-1.3c0.4-0.4,0.8-0.7,1.3-0.9s1.1-0.3,1.7-0.3c0.5,0,1,0.1,1.5,0.3
				c0.4,0.2,0.8,0.4,1.1,0.7c0.3,0.3,0.5,0.6,0.7,1s0.2,0.7,0.2,1.1c0,0,0,0.1,0,0.1c0,0.1,0,0.1,0,0.2c0,0.1,0,0.1,0,0.1
				c0,0,0,0.1,0,0.1h-5.8c0,1.1,0.3,2,0.8,2.6c0.5,0.6,1.3,0.9,2.3,0.9c0.3,0,0.7,0,0.9-0.1c0.3-0.1,0.5-0.1,0.8-0.2
				s0.4-0.2,0.6-0.3C128.7,66.4,128.8,66.3,129,66.2L129,66.2z M127.4,63.1c0-0.3,0-0.6-0.1-1c-0.1-0.3-0.2-0.6-0.3-0.8
				s-0.3-0.4-0.6-0.6c-0.2-0.1-0.5-0.2-0.9-0.2s-0.6,0.1-0.9,0.2c-0.3,0.1-0.5,0.3-0.7,0.5c-0.2,0.2-0.4,0.5-0.5,0.8s-0.2,0.7-0.3,1
				H127.4z"/>
			<path class="st7" d="M130,67.5l1.2-0.2c0.1,0,0.2-0.1,0.3-0.2s0.1-0.2,0.1-0.3v-8.7c0-0.1,0-0.2-0.1-0.3
				c-0.1-0.1-0.2-0.1-0.3-0.2l-1.2-0.2V57h5.2c0.4,0,0.8,0,1.3,0.1c0.5,0.1,0.9,0.2,1.4,0.3s0.9,0.4,1.3,0.6s0.8,0.6,1.1,1
				c0.3,0.4,0.6,0.9,0.8,1.4s0.3,1.2,0.3,1.9c0,0.9-0.2,1.7-0.5,2.4c-0.3,0.7-0.8,1.2-1.4,1.7c-0.6,0.4-1.2,0.8-2,1
				c-0.8,0.2-1.6,0.3-2.4,0.3H130V67.5z M135.3,67.3c0.7,0,1.4-0.1,1.9-0.3c0.5-0.2,1-0.5,1.4-0.9c0.4-0.4,0.6-0.9,0.8-1.4
				c0.2-0.6,0.3-1.2,0.3-1.9c0-0.8-0.1-1.5-0.4-2.1c-0.2-0.6-0.6-1.2-1-1.6s-0.9-0.8-1.5-1c-0.6-0.2-1.3-0.4-2-0.4h-1.6v9.7H135.3z"
				/>
		</g>
		<g class="st5">
			<path class="st7" d="M150,66.2v0.6c-0.2,0.2-0.4,0.3-0.6,0.5c-0.2,0.2-0.5,0.3-0.8,0.4c-0.3,0.1-0.6,0.2-1,0.3
				c-0.3,0.1-0.7,0.1-1.1,0.1c-0.6,0-1.1-0.1-1.6-0.3c-0.5-0.2-0.9-0.4-1.3-0.8c-0.4-0.3-0.6-0.8-0.8-1.2c-0.2-0.5-0.3-1.1-0.3-1.7
				c0-0.5,0.1-1,0.3-1.5s0.5-0.9,0.8-1.3c0.4-0.4,0.8-0.7,1.3-0.9s1.1-0.3,1.7-0.3c0.5,0,1,0.1,1.5,0.3c0.4,0.2,0.8,0.4,1.1,0.7
				s0.5,0.6,0.7,1s0.2,0.7,0.2,1.1c0,0,0,0.1,0,0.1c0,0.1,0,0.1,0,0.2c0,0.1,0,0.1,0,0.1c0,0,0,0.1,0,0.1h-5.8c0,1.1,0.3,2,0.8,2.6
				c0.5,0.6,1.3,0.9,2.3,0.9c0.3,0,0.7,0,0.9-0.1c0.3-0.1,0.5-0.1,0.8-0.2s0.4-0.2,0.6-0.3C149.7,66.4,149.8,66.3,150,66.2L150,66.2
				z M148.4,63.1c0-0.3,0-0.6-0.1-1c-0.1-0.3-0.2-0.6-0.3-0.8c-0.1-0.2-0.3-0.4-0.6-0.6c-0.2-0.1-0.5-0.2-0.9-0.2
				c-0.3,0-0.6,0.1-0.9,0.2c-0.3,0.1-0.5,0.3-0.7,0.5s-0.4,0.5-0.5,0.8c-0.1,0.3-0.2,0.7-0.3,1H148.4z"/>
			<path class="st7" d="M151.5,61.1c-0.1-0.1-0.1-0.2-0.2-0.2c-0.1,0-0.2-0.1-0.4-0.1l-0.6-0.2v-0.4h4.1v0.4l-1.3,0.2l2.1,4.3l0.5,1
				l2.4-5.2l-1.3-0.3v-0.4h3.2v0.4l-0.6,0.2c-0.2,0.1-0.3,0.1-0.4,0.1c-0.1,0-0.2,0.1-0.2,0.2l-2.4,5.1l-1,1.7h-0.4L151.5,61.1z"/>
		</g>
		<g class="st5">
			<path class="st7" d="M160.1,65.5h0.5l0.3,0.9c0,0.1,0.1,0.2,0.3,0.3c0.1,0.1,0.3,0.2,0.4,0.2c0.1,0,0.2,0.1,0.4,0.1
				s0.3,0.1,0.5,0.1c0.2,0,0.3,0.1,0.5,0.1c0.2,0,0.4,0,0.5,0c0.2,0,0.4,0,0.7-0.1s0.4-0.1,0.6-0.2c0.2-0.1,0.3-0.2,0.4-0.4
				s0.2-0.4,0.2-0.6c0-0.2,0-0.4-0.1-0.5c-0.1-0.1-0.2-0.3-0.4-0.4c-0.2-0.1-0.3-0.2-0.5-0.2c-0.2-0.1-0.4-0.1-0.6-0.2
				c-0.3-0.1-0.6-0.1-0.9-0.2c-0.3-0.1-0.6-0.1-0.8-0.2c-0.3-0.1-0.5-0.2-0.7-0.3s-0.4-0.3-0.5-0.5c-0.2-0.2-0.3-0.4-0.3-0.6
				s-0.1-0.5-0.1-0.7c0-0.3,0.1-0.7,0.3-0.9c0.2-0.3,0.4-0.5,0.7-0.7c0.3-0.2,0.6-0.4,1-0.5c0.4-0.1,0.8-0.2,1.3-0.2
				c0.3,0,0.5,0,0.7,0s0.4,0,0.6,0.1c0.2,0,0.4,0.1,0.6,0.1c0.2,0,0.4,0.1,0.6,0.1l0.1,2.1h-0.5l-0.4-0.9c0-0.1-0.1-0.2-0.2-0.3
				c-0.1-0.1-0.2-0.2-0.4-0.2c-0.2-0.1-0.4-0.2-0.7-0.2c-0.3-0.1-0.5-0.1-0.8-0.1c-0.2,0-0.4,0-0.6,0.1c-0.2,0-0.4,0.1-0.5,0.2
				c-0.2,0.1-0.3,0.2-0.4,0.4c-0.1,0.2-0.1,0.3-0.1,0.6s0,0.4,0.1,0.6c0.1,0.2,0.2,0.3,0.3,0.4c0.1,0.1,0.3,0.2,0.4,0.2
				c0.2,0.1,0.3,0.1,0.5,0.2c0.1,0,0.3,0.1,0.4,0.1s0.3,0.1,0.4,0.1c0.1,0,0.3,0.1,0.4,0.1s0.2,0.1,0.3,0.1c0.3,0.1,0.6,0.2,0.9,0.3
				c0.3,0.1,0.5,0.2,0.7,0.4c0.2,0.2,0.4,0.3,0.5,0.6s0.2,0.5,0.2,0.7c0,0.4-0.1,0.8-0.3,1.1c-0.2,0.3-0.4,0.6-0.8,0.8
				c-0.3,0.2-0.7,0.4-1.1,0.5c-0.4,0.1-0.9,0.1-1.4,0.1c-0.3,0-0.6,0-0.9,0c-0.3,0-0.5-0.1-0.8-0.1c-0.2-0.1-0.5-0.1-0.7-0.2
				s-0.4-0.1-0.6-0.2V65.5z"/>
		</g>
		<g class="st5">
			<path class="st7" d="M90.4,151.8v0.7c-0.3,0.2-0.6,0.4-0.9,0.6c-0.3,0.2-0.7,0.4-1.1,0.6c-0.4,0.2-0.8,0.3-1.3,0.4
				c-0.5,0.1-0.9,0.2-1.4,0.2c-1,0-1.8-0.1-2.6-0.4c-0.8-0.3-1.4-0.7-2-1.2c-0.5-0.5-1-1.1-1.3-1.8c-0.3-0.7-0.4-1.5-0.4-2.4
				c0-0.9,0.2-1.7,0.5-2.4c0.3-0.7,0.8-1.3,1.3-1.9c0.6-0.5,1.2-0.9,2-1.2c0.8-0.3,1.6-0.4,2.5-0.4c0.3,0,0.7,0,1,0.1
				c0.4,0,0.8,0.1,1.1,0.1c0.4,0.1,0.7,0.1,1.1,0.2s0.6,0.2,0.9,0.2v2.6h-0.5l-0.6-1.4c0-0.1-0.1-0.2-0.2-0.2
				c-0.1,0-0.1-0.1-0.2-0.1c-0.2-0.1-0.4-0.2-0.7-0.3c-0.3-0.1-0.5-0.2-0.8-0.2c-0.3-0.1-0.6-0.1-0.8-0.2c-0.3,0-0.6-0.1-0.8-0.1
				c-0.6,0-1.1,0.1-1.6,0.3c-0.5,0.2-0.9,0.5-1.2,0.9c-0.3,0.4-0.6,0.9-0.8,1.5c-0.2,0.6-0.3,1.3-0.3,2.1c0,1.7,0.4,3,1.3,3.8
				c0.8,0.9,2.1,1.3,3.6,1.3c0.5,0,1,0,1.4-0.1s0.8-0.2,1.1-0.4c0.3-0.1,0.6-0.3,0.9-0.5s0.5-0.3,0.7-0.5H90.4z"/>
			<path class="st7" d="M95.5,154.2c-0.7,0-1.3-0.1-1.8-0.3c-0.5-0.2-1-0.5-1.4-0.8c-0.4-0.4-0.7-0.8-0.9-1.3
				c-0.2-0.5-0.3-1.1-0.3-1.7c0-0.6,0.1-1.1,0.3-1.6c0.2-0.5,0.5-1,0.9-1.3s0.8-0.7,1.4-0.9s1.2-0.3,1.9-0.3c0.8,0,1.4,0.1,2,0.3
				c0.5,0.2,1,0.5,1.4,0.9c0.4,0.4,0.6,0.8,0.8,1.3s0.3,1,0.3,1.6c0,0.6-0.1,1.1-0.3,1.6s-0.5,1-0.9,1.3s-0.8,0.7-1.4,0.9
				C96.9,154.1,96.2,154.2,95.5,154.2z M95.7,153.6c0.5,0,0.9-0.1,1.3-0.3c0.3-0.2,0.6-0.5,0.8-0.9c0.2-0.3,0.3-0.7,0.4-1.1
				c0.1-0.4,0.1-0.8,0.1-1.2c0-0.5,0-0.9-0.1-1.4c-0.1-0.5-0.3-0.9-0.5-1.2c-0.2-0.4-0.5-0.7-0.9-0.9c-0.4-0.2-0.8-0.3-1.3-0.3
				c-0.3,0-0.6,0.1-0.9,0.2s-0.5,0.2-0.7,0.4c-0.2,0.2-0.4,0.4-0.5,0.6s-0.2,0.5-0.3,0.7S93,148.8,93,149c0,0.3,0,0.5,0,0.8
				c0,0.3,0,0.6,0.1,0.8c0,0.3,0.1,0.6,0.2,0.9s0.2,0.5,0.3,0.8c0.1,0.3,0.3,0.5,0.5,0.7c0.2,0.2,0.4,0.3,0.7,0.5
				C95,153.6,95.3,153.6,95.7,153.6z"/>
			<path class="st7" d="M100.9,153.6l1-0.2c0.1,0,0.2-0.1,0.3-0.2c0.1-0.1,0.1-0.2,0.1-0.3v-5.4c0-0.1,0-0.3-0.1-0.4
				c-0.1-0.1-0.2-0.2-0.4-0.2l-0.9-0.3v-0.2l3-0.6v1.3c0.2-0.3,0.4-0.5,0.7-0.7c0.2-0.2,0.5-0.3,0.7-0.4c0.2-0.1,0.5-0.2,0.7-0.2
				c0.3,0,0.5-0.1,0.8-0.1c0.3,0,0.6,0,0.9,0.1s0.5,0.1,0.8,0.3c0.2,0.1,0.4,0.3,0.6,0.5s0.3,0.4,0.4,0.7c0.3-0.4,0.6-0.7,0.9-0.9
				c0.3-0.2,0.5-0.4,0.8-0.5c0.3-0.1,0.5-0.2,0.8-0.2s0.5,0,0.7,0c0.4,0,0.8,0.1,1.1,0.2c0.4,0.1,0.7,0.3,0.9,0.5
				c0.3,0.2,0.5,0.5,0.6,0.9c0.1,0.4,0.2,0.8,0.2,1.3v4.3c0,0.1,0,0.2,0.1,0.3c0.1,0.1,0.2,0.1,0.3,0.2l0.9,0.2v0.4h-4.4v-0.4l1-0.2
				c0.1,0,0.2-0.1,0.3-0.2c0.1-0.1,0.1-0.2,0.1-0.3v-3.8c0-0.4,0-0.7-0.1-1c0-0.3-0.1-0.6-0.3-0.8c-0.1-0.2-0.3-0.4-0.6-0.5
				c-0.3-0.1-0.6-0.2-1-0.2c-0.2,0-0.4,0-0.6,0c-0.2,0-0.4,0.1-0.6,0.2c-0.2,0.1-0.4,0.2-0.6,0.3c-0.2,0.1-0.3,0.2-0.5,0.4v5.3
				c0,0.1,0,0.2,0.1,0.3c0.1,0.1,0.2,0.1,0.3,0.2l0.9,0.2v0.4h-4.4v-0.4l1-0.2c0.1,0,0.2-0.1,0.3-0.2c0.1-0.1,0.1-0.2,0.1-0.3v-3.8
				c0-0.4,0-0.7-0.1-1s-0.1-0.6-0.3-0.8c-0.1-0.2-0.3-0.4-0.6-0.5c-0.3-0.1-0.6-0.2-1-0.2c-0.2,0-0.4,0-0.6,0
				c-0.2,0-0.4,0.1-0.6,0.2c-0.2,0.1-0.4,0.2-0.6,0.3s-0.3,0.2-0.5,0.4v5.3c0,0.1,0,0.2,0.1,0.3c0.1,0.1,0.2,0.1,0.3,0.2l0.9,0.2
				v0.4h-4.4V153.6z"/>
			<path class="st7" d="M117.4,157.4l1.1-0.2c0.1,0,0.2-0.1,0.3-0.2s0.1-0.2,0.1-0.3v-9.2c0-0.1,0-0.3-0.1-0.4
				c-0.1-0.1-0.2-0.2-0.5-0.2l-0.9-0.3v-0.2l3-0.6v1.3c0.3-0.3,0.5-0.6,0.8-0.7c0.3-0.2,0.5-0.3,0.8-0.4c0.3-0.1,0.5-0.2,0.8-0.2
				s0.5,0,0.6,0c0.6,0,1.1,0.1,1.5,0.3c0.5,0.2,0.8,0.5,1.1,0.8s0.5,0.7,0.7,1.2c0.2,0.5,0.2,1,0.2,1.5c0,0.6-0.1,1.2-0.3,1.7
				c-0.2,0.5-0.5,1-0.9,1.4c-0.4,0.4-0.8,0.7-1.4,1s-1.2,0.3-1.8,0.3c-0.3,0-0.5,0-0.7-0.1c-0.2,0-0.4-0.1-0.6-0.2s-0.3-0.2-0.5-0.3
				c-0.1-0.1-0.3-0.2-0.4-0.3v0.3v3.1c0,0.1,0,0.2,0.1,0.3c0.1,0.1,0.2,0.1,0.3,0.2l1.3,0.2v0.4h-4.8V157.4z M120.5,152.9
				c0.1,0.1,0.3,0.2,0.4,0.2c0.2,0.1,0.4,0.1,0.6,0.2c0.2,0,0.4,0.1,0.6,0.1c0.2,0,0.3,0,0.5,0c0.5,0,0.9-0.1,1.3-0.3
				c0.4-0.2,0.7-0.4,0.9-0.7c0.2-0.3,0.4-0.6,0.5-1s0.2-0.8,0.2-1.2c0-0.5-0.1-1-0.2-1.4c-0.1-0.4-0.3-0.8-0.5-1.1s-0.5-0.6-0.9-0.7
				c-0.4-0.2-0.8-0.3-1.3-0.3c-0.1,0-0.3,0-0.5,0c-0.2,0-0.4,0.1-0.6,0.1c-0.2,0.1-0.4,0.2-0.5,0.3s-0.3,0.3-0.5,0.4V152.9z"/>
			<path class="st7" d="M127.8,153.6l1-0.2c0.1,0,0.2-0.1,0.3-0.2s0.1-0.2,0.1-0.3v-9.6c0-0.1,0-0.3-0.1-0.4
				c-0.1-0.1-0.2-0.2-0.5-0.2l-0.9-0.3v-0.2l3.1-0.6v11.3c0,0.1,0,0.2,0.1,0.3c0.1,0.1,0.2,0.1,0.3,0.2l0.9,0.2v0.4h-4.4V153.6z"/>
			<path class="st7" d="M132.9,153.6l1.1-0.2c0.1,0,0.2-0.1,0.3-0.2s0.1-0.2,0.1-0.3v-5.4c0-0.1,0-0.3-0.1-0.4
				c-0.1-0.1-0.2-0.2-0.5-0.2l-0.9-0.3v-0.2l3.1-0.6v7c0,0.1,0,0.2,0.1,0.3c0.1,0.1,0.2,0.1,0.3,0.2l1,0.2v0.4h-4.5V153.6z
				 M135.1,143.9c-0.2,0-0.3,0-0.4-0.1c-0.1-0.1-0.3-0.1-0.4-0.2s-0.2-0.2-0.2-0.3c-0.1-0.1-0.1-0.3-0.1-0.4c0-0.1,0-0.3,0.1-0.4
				c0.1-0.1,0.1-0.2,0.2-0.3s0.2-0.2,0.4-0.2c0.1-0.1,0.3-0.1,0.4-0.1s0.3,0,0.5,0.1c0.1,0.1,0.3,0.1,0.4,0.2
				c0.1,0.1,0.2,0.2,0.3,0.3c0.1,0.1,0.1,0.2,0.1,0.4c0,0.1,0,0.3-0.1,0.4c-0.1,0.1-0.1,0.2-0.3,0.3c-0.1,0.1-0.2,0.2-0.4,0.2
				C135.4,143.9,135.3,143.9,135.1,143.9z"/>
			<path class="st7" d="M143,153.5c-0.3,0.2-0.5,0.3-0.8,0.4c-0.3,0.1-0.5,0.2-0.8,0.2c-0.3,0-0.5,0-0.7,0c-0.4,0-0.7-0.1-1-0.2
				c-0.3-0.1-0.6-0.3-0.8-0.5c-0.2-0.2-0.4-0.4-0.5-0.7c-0.1-0.3-0.2-0.5-0.2-0.8c0-0.3,0.1-0.6,0.2-0.9c0.1-0.3,0.3-0.5,0.6-0.7
				c0.2-0.2,0.5-0.4,0.8-0.5c0.3-0.1,0.6-0.3,0.9-0.3c0.3-0.1,0.6-0.2,1-0.2c0.3,0,0.6-0.1,0.9-0.1c0.1,0,0.1,0,0.2,0s0.2,0,0.3,0
				c0.1,0,0.2,0,0.3,0s0.2,0,0.3,0l0-1.5c0-0.3,0-0.5-0.1-0.7c-0.1-0.2-0.1-0.3-0.2-0.4c-0.1-0.1-0.3-0.2-0.4-0.2s-0.4-0.1-0.6-0.1
				c-0.3,0-0.6,0-0.9,0.1c-0.3,0.1-0.6,0.2-0.8,0.3c-0.3,0.1-0.5,0.3-0.7,0.4c-0.2,0.1-0.4,0.3-0.6,0.4h-0.2l-0.3-1.3
				c0.2-0.1,0.4-0.2,0.6-0.3c0.2-0.1,0.5-0.2,0.7-0.2c0.3-0.1,0.5-0.1,0.8-0.2c0.3,0,0.6-0.1,0.9-0.1c0.4,0,0.8,0,1.2,0.1
				c0.4,0.1,0.8,0.2,1.1,0.4c0.3,0.2,0.6,0.5,0.8,0.8s0.3,0.7,0.3,1.2l-0.1,4.3c0,0.1,0,0.2,0,0.2s0.1,0.1,0.1,0.2s0.1,0.1,0.2,0.1
				c0.1,0,0.2,0,0.3,0c0,0,0.1,0,0.2,0c0.1,0,0.1,0,0.2,0s0.2,0,0.3,0s0.2,0,0.2-0.1h0.1v0.4c-0.1,0.1-0.2,0.1-0.3,0.2
				c-0.1,0.1-0.3,0.2-0.5,0.2c-0.2,0.1-0.3,0.1-0.5,0.2s-0.4,0.1-0.5,0.1c-0.2,0-0.5,0-0.6-0.1c-0.2,0-0.3-0.1-0.5-0.2
				c-0.1-0.1-0.2-0.2-0.3-0.4c-0.1-0.2-0.1-0.4-0.1-0.6C143.5,153.1,143.3,153.3,143,153.5z M143.8,149.8c-0.6,0-1.1,0-1.6,0.1
				c-0.5,0.1-0.9,0.2-1.2,0.3s-0.6,0.3-0.8,0.6c-0.2,0.2-0.3,0.5-0.3,0.9c0,0.3,0,0.5,0.1,0.7s0.2,0.3,0.4,0.5s0.3,0.2,0.5,0.3
				c0.2,0.1,0.4,0.1,0.6,0.1c0.2,0,0.4,0,0.6,0c0.2,0,0.4-0.1,0.6-0.2c0.2-0.1,0.4-0.2,0.5-0.3c0.2-0.1,0.3-0.2,0.4-0.4L143.8,149.8
				z"/>
			<path class="st7" d="M147.3,153.6l1-0.2c0.1,0,0.2-0.1,0.3-0.2c0.1-0.1,0.1-0.2,0.1-0.3v-5.4c0-0.1,0-0.3-0.1-0.4
				s-0.2-0.2-0.5-0.2l-0.9-0.3v-0.2l3-0.6v1.3c0.2-0.3,0.5-0.5,0.7-0.7c0.2-0.2,0.5-0.3,0.7-0.4c0.2-0.1,0.5-0.2,0.8-0.2
				c0.3,0,0.5-0.1,0.8-0.1c0.4,0,0.8,0.1,1.2,0.2c0.4,0.1,0.7,0.3,0.9,0.5c0.3,0.2,0.5,0.5,0.6,0.9c0.2,0.4,0.2,0.8,0.2,1.3v4.3
				c0,0.1,0,0.2,0.1,0.3c0.1,0.1,0.2,0.1,0.3,0.2l0.9,0.2v0.4h-4.4v-0.4l1.1-0.2c0.1,0,0.2-0.1,0.3-0.2c0.1-0.1,0.1-0.2,0.1-0.3
				v-3.7c0-0.4,0-0.7-0.1-1c0-0.3-0.1-0.6-0.3-0.8c-0.1-0.2-0.4-0.4-0.6-0.5c-0.3-0.1-0.6-0.2-1.1-0.2c-0.2,0-0.4,0-0.6,0
				c-0.2,0-0.4,0.1-0.6,0.2c-0.2,0.1-0.4,0.2-0.6,0.3s-0.3,0.2-0.5,0.4v5.3c0,0.1,0,0.2,0.1,0.3c0.1,0.1,0.2,0.1,0.3,0.2l0.9,0.2
				v0.4h-4.4V153.6z"/>
			<path class="st7" d="M165.9,152.2v0.6c-0.2,0.2-0.4,0.3-0.7,0.5c-0.2,0.2-0.5,0.3-0.8,0.4c-0.3,0.1-0.6,0.2-1,0.3
				c-0.3,0.1-0.7,0.1-1.1,0.1c-0.6,0-1.2-0.1-1.7-0.3s-0.9-0.5-1.3-0.9s-0.6-0.8-0.8-1.2s-0.3-1-0.3-1.5c0-0.4,0-0.8,0.1-1.1
				c0.1-0.4,0.2-0.7,0.4-1s0.4-0.6,0.7-0.9c0.3-0.3,0.6-0.5,1-0.7s0.8-0.4,1.2-0.5c0.5-0.1,0.9-0.2,1.5-0.2c0.4,0,0.7,0,0.9,0.1
				c0.3,0,0.5,0.1,0.7,0.2s0.3,0.1,0.5,0.2c0.1,0.1,0.2,0.1,0.3,0.2l-0.3,1.3h-0.2c-0.2-0.1-0.5-0.3-0.7-0.4
				c-0.2-0.1-0.5-0.3-0.7-0.4c-0.2-0.1-0.5-0.2-0.8-0.3c-0.3-0.1-0.6-0.1-0.9-0.1c-0.1,0-0.2,0-0.4,0s-0.2,0.1-0.4,0.1
				c-0.1,0-0.2,0.1-0.3,0.2s-0.2,0.1-0.3,0.2c-0.1,0.1-0.2,0.2-0.3,0.4c-0.1,0.2-0.2,0.3-0.3,0.6s-0.2,0.5-0.2,0.7
				c-0.1,0.3-0.1,0.6-0.1,0.9c0,0.5,0.1,1,0.2,1.5c0.1,0.4,0.3,0.8,0.6,1.1c0.3,0.3,0.6,0.5,1,0.7c0.4,0.2,0.9,0.2,1.4,0.2
				c0.3,0,0.5,0,0.8-0.1c0.2-0.1,0.5-0.2,0.7-0.2s0.4-0.2,0.6-0.3c0.2-0.1,0.3-0.2,0.4-0.3H165.9z"/>
			<path class="st7" d="M174.3,152.2v0.6c-0.2,0.2-0.4,0.3-0.7,0.5c-0.3,0.2-0.5,0.3-0.8,0.4c-0.3,0.1-0.6,0.2-1,0.3
				s-0.7,0.1-1.1,0.1c-0.6,0-1.2-0.1-1.7-0.3c-0.5-0.2-1-0.4-1.3-0.8c-0.4-0.4-0.7-0.8-0.9-1.3c-0.2-0.5-0.3-1.1-0.3-1.8
				c0-0.6,0.1-1.1,0.3-1.6c0.2-0.5,0.5-1,0.8-1.3s0.8-0.7,1.4-0.9c0.5-0.2,1.1-0.3,1.8-0.3c0.6,0,1.1,0.1,1.5,0.3s0.8,0.4,1.1,0.7
				c0.3,0.3,0.5,0.6,0.7,1s0.2,0.8,0.2,1.1c0,0,0,0.1,0,0.2s0,0.1,0,0.2c0,0.1,0,0.1,0,0.2c0,0,0,0.1,0,0.1h-6.1
				c0,1.2,0.3,2.1,0.8,2.7c0.5,0.6,1.3,1,2.3,1c0.4,0,0.7,0,1-0.1c0.3-0.1,0.6-0.2,0.8-0.3c0.2-0.1,0.4-0.2,0.6-0.3
				C174,152.4,174.1,152.3,174.3,152.2L174.3,152.2z M172.7,149c0-0.3,0-0.7-0.1-1s-0.2-0.6-0.3-0.8c-0.2-0.2-0.4-0.4-0.6-0.6
				c-0.2-0.1-0.5-0.2-0.9-0.2c-0.4,0-0.7,0.1-0.9,0.2c-0.3,0.1-0.5,0.3-0.7,0.5s-0.4,0.5-0.5,0.8c-0.1,0.3-0.2,0.7-0.3,1.1H172.7z"
				/>
		</g>
	</g>
</g>
</svg>
